<?xml version="1.0" encoding="utf-8"?>
<!-- Generator: Adobe Illustrator 27.3.1, SVG Export Plug-In . SVG Version: 6.00 Build 0)  -->
<svg version="1.1" id="Layer_1" xmlns="http://www.w3.org/2000/svg" xmlns:xlink="http://www.w3.org/1999/xlink" x="0px" y="0px"
	 viewBox="0 0 800 800" style="enable-background:new 0 0 800 800;" xml:space="preserve">
<style type="text/css">
	.st0{fill:#FFFFFF;}
</style>
<g>
	<path class="st0" d="M774.8,215l25.2-65.2l-1.1-4l-249.1,65.6c26.6-38.4,17.4-69.2,17.4-69.2s-79.6,50.8-139.7,49.5
		s-79.6-17.4-171.8,12c-92.2,29.4-118.3,119.7-145.1,139.1C83.9,362.2,0,425.3,0,425.3l0.2,1.1l75.6-24.1c0,0-20.7,19.5-64.8,79
		c0,0-0.8-0.7-2.1-1.9l0.1,0.4c0,0,35.4,54.1,70.2,44.1c3.5-1,7.4-2.7,11.7-4.9c14,7.8,32.3,15.5,52.4,17.6c0,0-13.7-15.9-25-33.9
		c3.1-2,6.2-4,9.4-6.1l-1.5,1l28.8,10.6l-3.2-27.1c0.1-0.1,0.2-0.1,0.3-0.2l28.3,10.4l-3.5-24.6c3.6-1.9,7.2-3.6,10.7-5.3
		l29.5-111.6l122-83.2l-9.7,24.4c-24.7,60.8-71.2,75.2-71.2,75.2l-19.4,7.4c-14.4,17-20.5,21.2-25.4,78.5
		c11.6-2.9,22.7-3.6,32.8-0.9c52.1,14,70.2,76.9,56.1,94.3c-3.5,4.4-11.9,11.8-22.4,20.5h-21.2l-0.3,17.2c-0.7,0.6-1.5,1.1-2.2,1.7
		h-21.5l-0.3,16.7c-1.9,1.5-3.8,2.9-5.6,4.2c-20.2,0.4-45.9-17.2-45.9-17.2c0,16.1,13.4,40.8,13.4,40.8s0.9-0.4,2.4-1.1
		c-1.3,1-2,1.5-2,1.5s54.1,36.1,88.2,22.7c30.3-11.9,108.8-73.8,176.5-103.1l205-54l27-70l-156.2,41.2v-62.9l183.3-48.3l27-70
		l-210.3,55.4v-62.9L774.8,215z"/>
</g>
</svg>
